<svg xmlns="http://www.w3.org/2000/svg" viewBox="0 0 521.365 420.082" height="448.087" width="556.123"><g color="#000"><path style="isolation:auto;mix-blend-mode:normal;solid-color:#000;solid-opacity:1" d="M19.538 76.667l481.132-1.138c-42.046 78.955-2.91 177.447.172 267.266l-480.353-.044c43.21-78.092 6.151-175.2-.95-266.084z" overflow="visible" fill="#2c5aa4"/><path style="isolation:auto;mix-blend-mode:normal;solid-color:#000;solid-opacity:1" d="M263.107 248.56l-243.05 75.876 239.856 91.837 241.201-91.837z" overflow="visible" fill="#2c5aa4"/><path style="isolation:auto;mix-blend-mode:normal;solid-color:#000;solid-opacity:1" d="M263.351 133.186l-243.05 75.877 243.05 77.32 238.007-77.32z" overflow="visible" fill="#2c5aa4"/><path style="isolation:auto;mix-blend-mode:normal;solid-color:#000;solid-opacity:1" d="M501.351 209.052l-238.213 77.213c25.635 30.693 19.326 112.389-.215 133.683L501.34 342.72c26.65-37.394 26.746-82.055.018-133.668z" overflow="visible" fill="#3369c0"/><path style="isolation:auto;mix-blend-mode:normal;solid-color:#000;solid-opacity:1" d="M20.3 209.059l242.973 77.152c25.977 27.96 21 109.737-.38 133.87L20.328 342.89l.039-18.348 7.263 2.69c36.472 13.509 31.47-86.645 3.086-97.67l-10.329-4.013-.009-16.663z" overflow="visible" fill="#234781"/><path style="isolation:auto;mix-blend-mode:normal;solid-color:#000;solid-opacity:1" d="M67.396 241.52l182.622 58.217c19.555 21.048 16.095 82.472 0 100.64L26.211 326.313c5.925-42.168 5.863-57.686.163-98.56z" overflow="visible" fill="#ccc"/><path style="isolation:auto;mix-blend-mode:normal;solid-color:#000;solid-opacity:1" d="M263.477 115.37l238.188 75.543-234.292 92.153L25.79 192.437z" overflow="visible" fill="#2c5aa4"/><path style="isolation:auto;mix-blend-mode:normal;solid-color:#000;solid-opacity:1" d="M262.75 0l238.188 75.543-237.547 77.653L19.706 76.71z" overflow="visible" fill="#2c5aa4"/><path style="isolation:auto;mix-blend-mode:normal;solid-color:#000;solid-opacity:1" d="M19.713 76.699l243.891 76.377c-25.506 30.822-18.856 112.484.775 133.68l-244.096-76.39c-26.805-37.26-27.088-81.92-.576-133.667z" overflow="visible" fill="#234781"/><path style="isolation:auto;mix-blend-mode:normal;solid-color:#000;solid-opacity:1" d="M500.94 75.539l-237.47 77.483c-25.86 28.09-20.542 109.841.94 133.868l237.06-77.522-.116-18.347-7.251 2.726c-36.416 13.69-31.833-86.487-3.495-97.655l10.312-4.063c.068-5.229-.219-11.953.02-16.49z" overflow="visible" fill="#3369c0"/><path style="isolation:auto;mix-blend-mode:normal;solid-color:#000;solid-opacity:1" d="M453.98 108.235l-177.2 58.248c-19.467 21.145-15.75 82.55.421 100.638l218.318-74.299c-6.101-42.138-6.104-57.657-.576-98.558z" overflow="visible" fill="#fff"/></g></svg>