<svg xmlns="http://www.w3.org/2000/svg" viewBox="0 0 521.365 420.082" height="448.087" width="556.123"><defs><filter id="a" color-interpolation-filters="sRGB"><feColorMatrix type="hueRotate" values="260" result="color1"/><feColorMatrix type="saturate" values=".6" result="color2"/></filter></defs><g transform="translate(-107.654 -289.848)" filter="url(#a)"><g color="#000"><path style="isolation:auto;mix-blend-mode:normal;solid-color:#000;solid-opacity:1" d="M127.192 366.515l481.132-1.138c-42.047 78.955-2.91 177.447.171 267.267l-480.353-.044c43.21-78.093 6.152-175.202-.95-266.085z" overflow="visible" fill="#2c5aa4" enable-background="accumulate"/><path style="isolation:auto;mix-blend-mode:normal;solid-color:#000;solid-opacity:1" d="M370.761 538.408l-243.05 75.876 239.856 91.837 241.201-91.837z" overflow="visible" fill="#2c5aa4" enable-background="accumulate"/><path style="isolation:auto;mix-blend-mode:normal;solid-color:#000;solid-opacity:1" d="M371.005 423.034l-243.05 75.877 243.05 77.321 238.007-77.321z" overflow="visible" fill="#2c5aa4" enable-background="accumulate"/><path style="isolation:auto;mix-blend-mode:normal;solid-color:#000;solid-opacity:1" d="M609.005 498.9l-238.213 77.213c25.635 30.694 19.326 112.39-.216 133.683l238.418-77.228c26.649-37.394 26.745-82.055.018-133.668z" overflow="visible" fill="#3369c0" enable-background="accumulate"/><path style="isolation:auto;mix-blend-mode:normal;solid-color:#000;solid-opacity:1" d="M127.954 498.907l242.972 77.152c25.977 27.96 21 109.737-.38 133.871l-242.564-77.193.04-18.348 7.262 2.69c36.473 13.509 31.471-86.645 3.087-97.67l-10.33-4.013-.008-16.663z" overflow="visible" fill="#234781" enable-background="accumulate"/><path style="isolation:auto;mix-blend-mode:normal;solid-color:#000;solid-opacity:1" d="M175.05 531.367l182.622 58.219c19.555 21.047 16.095 82.47 0 100.64l-223.807-74.064c5.925-42.168 5.863-57.687.163-98.56z" overflow="visible" fill="#ccc" enable-background="accumulate"/><path style="isolation:auto;mix-blend-mode:normal;solid-color:#000;solid-opacity:1" d="M371.131 405.219l238.188 75.543-234.292 92.152-241.583-90.628z" overflow="visible" fill="#2c5aa4" enable-background="accumulate"/><path style="isolation:auto;mix-blend-mode:normal;solid-color:#000;solid-opacity:1" d="M370.404 289.848l238.188 75.543-237.547 77.653-243.685-76.486z" overflow="visible" fill="#2c5aa4" enable-background="accumulate"/><path style="isolation:auto;mix-blend-mode:normal;solid-color:#000;solid-opacity:1" d="M127.367 366.547l243.89 76.377c-25.505 30.822-18.855 112.485.776 133.68l-244.096-76.39c-26.805-37.26-27.088-81.92-.576-133.667z" overflow="visible" fill="#234781" enable-background="accumulate"/><path style="isolation:auto;mix-blend-mode:normal;solid-color:#000;solid-opacity:1" d="M608.593 365.387l-237.47 77.484c-25.86 28.089-20.54 109.84.94 133.868l237.061-77.523-.116-18.347-7.252 2.726c-36.415 13.691-31.832-86.487-3.494-97.654l10.312-4.064c.068-5.229-.219-11.953.02-16.49z" overflow="visible" fill="#3369c0" enable-background="accumulate"/><path style="isolation:auto;mix-blend-mode:normal;solid-color:#000;solid-opacity:1" d="M561.634 398.083l-177.2 58.248c-19.467 21.145-15.75 82.55.421 100.638l218.318-74.299c-6.102-42.138-6.104-57.657-.576-98.557z" overflow="visible" fill="#fff" enable-background="accumulate"/></g></g></svg>